<?xml version="1.0" standalone="no"?>
<!DOCTYPE svg PUBLIC "-//W3C//DTD SVG 20010904//EN"
 "http://www.w3.org/TR/2001/REC-SVG-20010904/DTD/svg10.dtd">
<svg version="1.0" xmlns="http://www.w3.org/2000/svg"
 width="200.000000pt" height="200.000000pt" viewBox="0 0 200.000000 200.000000"
 preserveAspectRatio="xMidYMid meet">
<metadata>
Created by potrace 1.11, written by Peter Selinger 2001-2013
</metadata>
<g transform="translate(0.000000,200.000000) scale(0.100000,-0.100000)"
fill="#000000" stroke="none">
<path d="M1007 1439 c-9 -6 -12 -100 -10 -396 1 -213 2 -394 2 -400 1 -9 21
-13 66 -13 l65 0 0 405 c0 313 -3 405 -13 406 -64 4 -100 3 -110 -2z"/>
<path d="M163 1109 c-33 -12 -60 -63 -55 -99 6 -38 54 -80 93 -80 37 0 79 40
79 75 0 22 -4 25 -39 25 -25 0 -41 -5 -45 -15 -3 -8 0 -16 7 -16 7 -1 17 -2
22 -4 6 -1 15 -3 20 -4 16 -3 -27 -31 -47 -31 -25 0 -58 36 -58 63 0 46 61 75
96 46 7 -6 16 -4 23 5 10 12 8 17 -7 25 -29 15 -65 19 -89 10z"/>
<path d="M319 1115 c-1 0 -2 -42 -3 -92 -1 -70 2 -93 11 -93 13 0 15 3 17 42
2 37 33 34 57 -6 11 -20 27 -36 35 -36 18 0 18 15 -2 46 -15 23 -15 26 0 43
24 26 20 65 -6 79 -17 8 -94 20 -109 17z m93 -48 c12 -19 -4 -37 -32 -37 -29
0 -47 29 -28 48 11 11 50 4 60 -11z"/>
<path d="M508 1112 c-16 -3 -18 -16 -18 -93 l0 -89 60 0 c47 0 60 3 60 15 0
14 -13 20 -34 16 -24 -5 -52 10 -53 29 -1 16 4 20 33 20 24 0 34 5 34 15 0 10
-10 15 -34 15 -28 0 -33 3 -32 23 1 19 6 22 44 21 29 0 42 3 42 13 0 7 -8 13
-17 14 -10 0 -29 1 -43 2 -14 2 -33 1 -42 -1z"/>
<path d="M651 1097 c-7 -19 -5 -156 2 -164 3 -2 31 -3 63 -1 53 3 56 4 41 19
-10 10 -28 15 -46 13 -27 -3 -31 -1 -31 21 0 22 4 25 35 25 24 0 35 5 35 15 0
10 -11 15 -35 15 -30 0 -35 3 -35 23 0 21 4 24 40 22 25 -1 41 3 44 12 6 15 8
14 -58 16 -39 2 -50 -2 -55 -16z"/>
<path d="M1285 1110 c-11 -4 -33 -22 -49 -39 -34 -35 -45 -33 -41 9 2 22 -2
30 -14 30 -14 0 -17 -13 -16 -90 0 -74 2 -90 14 -88 9 2 16 15 16 31 3 45 23
57 45 27 10 -14 25 -33 32 -44 8 -10 22 -17 32 -15 15 3 13 11 -18 51 -20 26
-36 51 -36 57 0 5 14 21 31 35 33 28 36 48 4 36z"/>
<path d="M1395 1111 c-46 -14 -58 -28 -62 -77 -5 -44 -2 -52 22 -77 72 -71
177 6 142 106 -13 39 -59 61 -102 48z m55 -39 c29 -23 29 -67 1 -95 -44 -45
-112 20 -81 77 11 22 23 30 51 35 4 0 17 -7 29 -17z"/>
<path d="M1552 1112 c-8 -2 -12 -34 -12 -94 l0 -90 56 4 c36 3 62 11 74 24 41
40 26 138 -23 148 -40 9 -84 12 -95 8z m97 -47 c21 -20 18 -73 -5 -90 -10 -8
-31 -15 -46 -15 -27 0 -28 1 -28 58 0 32 3 61 6 65 9 9 58 -3 73 -18z"/>
<path d="M1758 1112 l-28 -3 0 -90 0 -89 54 0 c54 0 78 12 54 26 -7 4 -27 8
-45 7 -28 0 -33 3 -33 23 0 19 6 23 38 26 20 2 37 8 37 13 0 6 -17 11 -37 13
-32 3 -38 7 -38 26 0 20 5 22 42 22 23 -1 43 4 45 10 4 13 -44 21 -89 16z"/>
<path d="M804 1020 c0 -76 3 -90 16 -88 12 3 15 17 13 67 -1 35 2 60 6 55 4
-5 26 -35 50 -66 62 -82 71 -78 71 32 0 72 -3 90 -15 90 -10 0 -15 -16 -17
-61 l-3 -61 -44 61 c-64 88 -78 83 -77 -29z"/>
</g>
</svg>
